<svg viewBox="-62 0 512 512" xmlns="http://www.w3.org/2000/svg"><path d="M60.945 278.219c.64-1.598 7.051-26.23 7.5-27.899-10.007-15.058-21.125-64.37-12.597-104.398 9.199-58.73 71.437-87.602 130.199-87.602v-.11c73.57.048 128.64 40.981 128.7 111.477.046 55.18-33.196 128.118-89.958 128.118h-.043c-20.258 0-45.906-9.188-52.633-18.211-7.761-10.399-9.668-23.23-5.566-36.942 10.05-32.082 22.867-70.511 24.363-96.136 1.387-24.184-15.773-39.918-38.027-39.918-16.746 0-38.496 9.726-49.336 37.058-8.953 22.707-8.762 46.48.586 72.672 3.644 10.238-16.156 76.984-22.5 98.719-15.762 53.992-37.34 122.305-32.727 160.348L53.36 512l22.368-29.313c30.953-40.519 62.957-145.332 71.484-170.835 25.21 32.648 77.71 33.586 83.832 33.586 75.184 0 160.437-74.657 158.02-178.563C386.94 75.754 320.252 0 200.43 0v.117C86.453.117 19.93 60.953 3.645 137.82c-14.915 71.274 18.253 125.52 57.3 140.399zm0 0"/></svg>