<svg xmlns="http://www.w3.org/2000/svg" width="25" height="17"><path fill-rule="evenodd" fill="#fff" d="M2 7.998h21v1H2v-1zm0 1h21v1H2v-1zm13.95-7.085l7.437 6.684-.668.743-7.438-6.684.668-.743zm-.67.743l7.44 6.684-.669.744-7.438-6.683.669-.745zm6.349 5.342l-7.63 6.544.686.728 7.63-6.544-.686-.728zm.685.728l-7.629 6.544.686.728L23 9.455l-.686-.729zM2 7.998h21v1H2v-1zm0 1h21v1H2v-1zm13.95-7.085l7.437 6.684-.668.743-7.438-6.684.668-.743zm-.67.743l7.44 6.684-.669.744-7.438-6.683.669-.745zm6.349 5.342l-7.63 6.544.686.728 7.63-6.544-.686-.728zm.685.728l-7.629 6.544.686.728L23 9.455l-.686-.729z"/></svg>