<svg xmlns="http://www.w3.org/2000/svg"
 xmlns:xlink="http://www.w3.org/1999/xlink"
 width="25px" height="17px"  viewBox="0 0 25 17">
<path fill-rule="evenodd"  fill="#ffffff"
 d="M1.9998169,7.998291 C1.9998169,7.998291 22.999756,7.998291 22.999756,7.998291 C22.999756,7.998291 22.999756,8.998047 22.999756,8.998047 C22.999756,8.998047 1.9998169,8.998047 1.9998169,8.998047 C1.9998169,8.998047 1.9998169,7.998291 1.9998169,7.998291 ZM1.9998169,8.998047 C1.9998169,8.998047 22.999756,8.998047 22.999756,8.998047 C22.999756,8.998047 22.999756,9.997803 22.999756,9.997803 C22.999756,9.997803 1.9998169,9.997803 1.9998169,9.997803 C1.9998169,9.997803 1.9998169,8.998047 1.9998169,8.998047 ZM15.949097,1.9128418 C15.949097,1.9128418 23.387207,8.59668 23.387207,8.59668 C23.387207,8.59668 22.718872,9.339844 22.718872,9.339844 C22.718872,9.339844 15.280762,2.6564941 15.280762,2.6564941 C15.280762,2.6564941 15.949097,1.9128418 15.949097,1.9128418 ZM15.280762,2.6564941 C15.280762,2.6564941 22.718872,9.339844 22.718872,9.339844 C22.718872,9.339844 22.050415,10.083984 22.050415,10.083984 C22.050415,10.083984 14.612305,3.4006348 14.612305,3.4006348 C14.612305,3.4006348 15.280762,2.6564941 15.280762,2.6564941 ZM21.628662,7.998291 C21.628662,7.998291 13.999756,14.541748 13.999756,14.541748 C13.999756,14.541748 14.685303,15.270264 14.685303,15.270264 C14.685303,15.270264 22.314209,8.726318 22.314209,8.726318 C22.314209,8.726318 21.628662,7.998291 21.628662,7.998291 ZM22.314209,8.726318 C22.314209,8.726318 14.685303,15.270264 14.685303,15.270264 C14.685303,15.270264 15.37085,15.997803 15.37085,15.997803 C15.37085,15.997803 22.999756,9.454834 22.999756,9.454834 C22.999756,9.454834 22.314209,8.726318 22.314209,8.726318 ZM1.9998169,7.998291 C1.9998169,7.998291 22.999756,7.998291 22.999756,7.998291 C22.999756,7.998291 22.999756,8.998047 22.999756,8.998047 C22.999756,8.998047 1.9998169,8.998047 1.9998169,8.998047 C1.9998169,8.998047 1.9998169,7.998291 1.9998169,7.998291 ZM1.9998169,8.998047 C1.9998169,8.998047 22.999756,8.998047 22.999756,8.998047 C22.999756,8.998047 22.999756,9.997803 22.999756,9.997803 C22.999756,9.997803 1.9998169,9.997803 1.9998169,9.997803 C1.9998169,9.997803 1.9998169,8.998047 1.9998169,8.998047 ZM15.949097,1.9128418 C15.949097,1.9128418 23.387207,8.59668 23.387207,8.59668 C23.387207,8.59668 22.718872,9.339844 22.718872,9.339844 C22.718872,9.339844 15.280762,2.6564941 15.280762,2.6564941 C15.280762,2.6564941 15.949097,1.9128418 15.949097,1.9128418 ZM15.280762,2.6564941 C15.280762,2.6564941 22.718872,9.339844 22.718872,9.339844 C22.718872,9.339844 22.050415,10.083984 22.050415,10.083984 C22.050415,10.083984 14.612305,3.4006348 14.612305,3.4006348 C14.612305,3.4006348 15.280762,2.6564941 15.280762,2.6564941 ZM21.628662,7.998291 C21.628662,7.998291 13.999756,14.541748 13.999756,14.541748 C13.999756,14.541748 14.685303,15.270264 14.685303,15.270264 C14.685303,15.270264 22.314209,8.726318 22.314209,8.726318 C22.314209,8.726318 21.628662,7.998291 21.628662,7.998291 ZM22.314209,8.726318 C22.314209,8.726318 14.685303,15.270264 14.685303,15.270264 C14.685303,15.270264 15.37085,15.997803 15.37085,15.997803 C15.37085,15.997803 22.999756,9.454834 22.999756,9.454834 C22.999756,9.454834 22.314209,8.726318 22.314209,8.726318 Z"/>
</svg>