<?xml version="1.0"?>
<svg xmlns="http://www.w3.org/2000/svg" xmlns:xlink="http://www.w3.org/1999/xlink" xmlns:svgjs="http://svgjs.com/svgjs" version="1.1" width="512" height="512" x="0" y="0" viewBox="0 0 512 512" style="enable-background:new 0 0 512 512" xml:space="preserve" class=""><g><rect xmlns="http://www.w3.org/2000/svg" fill="#b2f2ee" height="264" rx="16" width="256" x="200" y="24" data-original="#548aff" style="" class=""/><path xmlns="http://www.w3.org/2000/svg" d="m232 88h96v72h-96z" fill="#91b6e2" data-original="#a6cfff" style="" class=""/><path xmlns="http://www.w3.org/2000/svg" d="m272 136 32-24 24 16v32h-56z" fill="#7dafff" data-original="#7dafff" style="" class=""/><path xmlns="http://www.w3.org/2000/svg" d="m336 445.66992v18.33008h-16l-16-16-21.25-4.25-54.93994-10.99-27.96-34.93994-5.90006-7.38012-17.95-22.43994v128h-152v-128a55.99746 55.99746 0 0 1 56-56h96.62012a32.00389 32.00389 0 0 1 24.98974 12.01l29.41014 36.77 24.98 31.22 59.87988 23.95a32.00991 32.00991 0 0 1 20.12012 29.71992z" fill="#ffceb6" data-original="#ffceb6" style="" class=""/><path xmlns="http://www.w3.org/2000/svg" d="m280.5 438.8501-10.6499-17.75a51.94488 51.94488 0 0 0 -44.3301-25.1001c-1.31006 0-2.6499.05-3.96.1499l-21.71 1.67017 27.96 34.93994 54.94 10.98999a24.94038 24.94038 0 0 0 -2.25-4.8999z" fill="#ffbfa1" data-original="#ffbfa1" style="" class=""/><path xmlns="http://www.w3.org/2000/svg" d="m231.02 360.78-37.07 29.65994-17.95-22.43994v128h-152v-128a55.99746 55.99746 0 0 1 56-56h96.62012a32.00389 32.00389 0 0 1 24.98974 12.01z" fill="#ffb401" data-original="#ffb401" style="" class=""/><path xmlns="http://www.w3.org/2000/svg" d="m136 352 8 56-16 24-16-24 8-56z" fill="#ef5e3b" data-original="#ef5e3b" style="" class=""/><path xmlns="http://www.w3.org/2000/svg" d="m144 344-8 8h-16l-8-8 16-16z" fill="#e04f2b" data-original="#e04f2b" style="" class=""/><rect xmlns="http://www.w3.org/2000/svg" fill="#ffa100" height="40.167" rx="8" transform="matrix(.64 -.768 .768 .64 -267.272 207.086)" width="15.999" x="79.429" y="368.773" data-original="#ffa100" style="" class=""/><rect xmlns="http://www.w3.org/2000/svg" fill="#ffa100" height="35.516" rx="8" transform="matrix(.53 -.848 .848 .53 -348.439 254.154)" width="16.001" x="47.058" y="423.654" data-original="#ffa100" style="" class=""/><path xmlns="http://www.w3.org/2000/svg" d="m70.11764 450.82352 23.10688 14.4418a32 32 0 0 0 23.23568 4.24268l107.5398-21.508 29.35445 14.67722a12.52945 12.52945 0 0 0 5.60337 1.32278h.51267a12.52951 12.52951 0 0 0 12.52951-12.52951 12.5296 12.5296 0 0 0 -1.78554-6.44638l-10.65093-17.75154a39.696 39.696 0 0 0 -34.03899-19.27257q-1.524 0-3.04454.11692l-102.48 7.88308-17.14287-14.28572-32.7395 49.10924z" fill="#ffceb6" data-original="#ffceb6" style="" class=""/><path xmlns="http://www.w3.org/2000/svg" d="m240 464h104v24h-104z" fill="#6d7e96" data-original="#e0edff" style="" class=""/><rect xmlns="http://www.w3.org/2000/svg" fill="#97a9c4" height="128" rx="16" width="184" x="304" y="264" data-original="#c5dafa" style="" class=""/><path xmlns="http://www.w3.org/2000/svg" d="m384 336h48v152h-48z" fill="#6d7e96" data-original="#e0edff" style="" class=""/><path xmlns="http://www.w3.org/2000/svg" d="m344 464h40v24h-40z" fill="#97a9c4" data-original="#c5dafa" style="" class=""/><path xmlns="http://www.w3.org/2000/svg" d="m304 160-48-40-24 16v24z" fill="#91c0ff" data-original="#91c0ff" style="" class=""/><g xmlns="http://www.w3.org/2000/svg" fill="#4367e0"><path d="m352 88h24v16h-24z" fill="#4367e0" data-original="#4367e0" style="" class=""/><path d="m392 88h40v16h-40z" fill="#4367e0" data-original="#4367e0" style="" class=""/><path d="m352 120h56v16h-56z" fill="#4367e0" data-original="#4367e0" style="" class=""/><path d="m352 152h48v16h-48z" fill="#4367e0" data-original="#4367e0" style="" class=""/><path d="m416 152h16v16h-16z" fill="#4367e0" data-original="#4367e0" style="" class=""/><path d="m232 192h24v16h-24z" fill="#4367e0" data-original="#4367e0" style="" class=""/><path d="m272 192h96v16h-96z" fill="#4367e0" data-original="#4367e0" style="" class=""/><path d="m384 192h48v16h-48z" fill="#4367e0" data-original="#4367e0" style="" class=""/><path d="m232 224h80v16h-80z" fill="#4367e0" data-original="#4367e0" style="" class=""/><path d="m328 224h104v16h-104z" fill="#4367e0" data-original="#4367e0" style="" class=""/></g><path xmlns="http://www.w3.org/2000/svg" d="m148.6856 351.99985-20.6856-20.68637-20.6856 20.68637a8.00045 8.00045 0 0 1 -11.3144.00015 8.00044 8.00044 0 0 1 0-11.31434l26.34283-26.34283a8.003 8.003 0 0 1 11.31446 0l26.34283 26.34283a8.00044 8.00044 0 0 1 0 11.31434 8.00045 8.00045 0 0 1 -11.31452-.00015z" fill="#ffa100" data-original="#ffa100" style="" class=""/><path xmlns="http://www.w3.org/2000/svg" d="m128 320a32 32 0 0 0 32-32v-40h-40l-24 24v16a32 32 0 0 0 32 32z" fill="#ffceb6" data-original="#ffceb6" style="" class=""/><path xmlns="http://www.w3.org/2000/svg" d="m160 248 3.02944-3.02944a16.97054 16.97054 0 0 0 4.97056-12 16.97054 16.97054 0 0 0 -16.97055-16.97056h-31.02945a24 24 0 0 0 -24 24v32l24-24z" fill="#c47220" data-original="#c47220" style=""/><circle xmlns="http://www.w3.org/2000/svg" cx="224" cy="48" fill="#fa8669" r="8" data-original="#fa8669" style="" class=""/><circle xmlns="http://www.w3.org/2000/svg" cx="248" cy="48" fill="#f5c651" r="8" data-original="#ffc431" style="" class=""/><circle xmlns="http://www.w3.org/2000/svg" cx="272" cy="48" fill="#3cde8d" r="8" data-original="#3cde8d" style="" class=""/></g></svg>
