<svg xmlns="http://www.w3.org/2000/svg" width="512" height="512"><rect xmlns="http://www.w3.org/2000/svg" fill="#b2f2ee" height="264" rx="16" width="256" x="200" y="24" data-original="#548aff"/><path xmlns="http://www.w3.org/2000/svg" d="M232 88h96v72h-96z" fill="#91b6e2" data-original="#a6cfff"/><path xmlns="http://www.w3.org/2000/svg" d="M272 136l32-24 24 16v32h-56z" fill="#7dafff" data-original="#7dafff"/><path xmlns="http://www.w3.org/2000/svg" d="M336 445.67V464h-16l-16-16-21.25-4.25-54.94-10.99-27.96-34.94-5.9-7.38L176 368v128H24V368a55.997 55.997 0 0156-56h96.62a32.004 32.004 0 0124.99 12.01l29.41 36.77L256 392l59.88 23.95A32.01 32.01 0 01336 445.67z" fill="#ffceb6" data-original="#ffceb6"/><path xmlns="http://www.w3.org/2000/svg" d="M280.5 438.85l-10.65-17.75a51.945 51.945 0 00-44.33-25.1c-1.31 0-2.65.05-3.96.15l-21.71 1.67 27.96 34.94 54.94 10.99a24.94 24.94 0 00-2.25-4.9z" fill="#ffbfa1" data-original="#ffbfa1"/><path xmlns="http://www.w3.org/2000/svg" d="M231.02 360.78l-37.07 29.66L176 368v128H24V368a55.997 55.997 0 0156-56h96.62a32.004 32.004 0 0124.99 12.01z" fill="#ffb401" data-original="#ffb401"/><path xmlns="http://www.w3.org/2000/svg" d="M136 352l8 56-16 24-16-24 8-56z" fill="#ef5e3b" data-original="#ef5e3b"/><path xmlns="http://www.w3.org/2000/svg" d="M144 344l-8 8h-16l-8-8 16-16z" fill="#e04f2b" data-original="#e04f2b"/><rect xmlns="http://www.w3.org/2000/svg" fill="#ffa100" height="40.167" rx="8" transform="rotate(-50.2 87.458 388.973)" width="15.999" x="79.429" y="368.773" data-original="#ffa100"/><rect xmlns="http://www.w3.org/2000/svg" fill="#ffa100" height="35.516" rx="8" transform="rotate(-58 55.06 441.412)" width="16.001" x="47.058" y="423.654" data-original="#ffa100"/><path xmlns="http://www.w3.org/2000/svg" d="M70.118 450.824l23.107 14.441a32 32 0 0023.235 4.243L224 448l29.354 14.677a12.53 12.53 0 005.604 1.323h.512A12.53 12.53 0 00272 451.47a12.53 12.53 0 00-1.786-6.446l-10.65-17.751A39.696 39.696 0 00225.524 408q-1.523 0-3.044.117L120 416l-17.143-14.286-32.74 49.11z" fill="#ffceb6" data-original="#ffceb6"/><path xmlns="http://www.w3.org/2000/svg" d="M240 464h104v24H240z" fill="#6d7e96" data-original="#e0edff"/><rect xmlns="http://www.w3.org/2000/svg" fill="#97a9c4" height="128" rx="16" width="184" x="304" y="264" data-original="#c5dafa"/><path xmlns="http://www.w3.org/2000/svg" d="M384 336h48v152h-48z" fill="#6d7e96" data-original="#e0edff"/><path xmlns="http://www.w3.org/2000/svg" d="M344 464h40v24h-40z" fill="#97a9c4" data-original="#c5dafa"/><path xmlns="http://www.w3.org/2000/svg" d="M304 160l-48-40-24 16v24z" fill="#91c0ff" data-original="#91c0ff"/><path d="M352 88h24v16h-24zm40 0h40v16h-40zm-40 32h56v16h-56zm0 32h48v16h-48zm64 0h16v16h-16zm-184 40h24v16h-24zm40 0h96v16h-96zm112 0h48v16h-48zm-152 32h80v16h-80zm96 0h104v16H328z" data-original="#4367e0" xmlns="http://www.w3.org/2000/svg" fill="#4367e0"/><path xmlns="http://www.w3.org/2000/svg" d="M148.686 352L128 331.313 107.314 352A8 8 0 0196 352a8 8 0 010-11.314l26.343-26.343a8.003 8.003 0 0111.314 0L160 340.686A8 8 0 01160 352a8 8 0 01-11.314 0z" fill="#ffa100" data-original="#ffa100"/><path xmlns="http://www.w3.org/2000/svg" d="M128 320a32 32 0 0032-32v-40h-40l-24 24v16a32 32 0 0032 32z" fill="#ffceb6" data-original="#ffceb6"/><path xmlns="http://www.w3.org/2000/svg" d="M160 248l3.03-3.03a16.97 16.97 0 004.97-12A16.97 16.97 0 00151.03 216H120a24 24 0 00-24 24v32l24-24z" fill="#c47220" data-original="#c47220"/><circle xmlns="http://www.w3.org/2000/svg" cx="224" cy="48" fill="#fa8669" r="8" data-original="#fa8669"/><circle xmlns="http://www.w3.org/2000/svg" cx="248" cy="48" fill="#f5c651" r="8" data-original="#ffc431"/><circle xmlns="http://www.w3.org/2000/svg" cx="272" cy="48" fill="#3cde8d" r="8" data-original="#3cde8d"/></svg>