<svg width="380" height="353" viewBox="0 0 380 353" fill="none" xmlns="http://www.w3.org/2000/svg">
<path d="M190.5 0C155.789 0 121.858 10.3515 92.9975 29.7456C64.1367 49.1397 41.6424 76.7052 28.3592 108.956C15.076 141.208 11.6006 176.696 18.3723 210.933C25.144 245.171 41.8587 276.62 66.4028 301.304C90.9469 325.988 122.218 342.798 156.262 349.609C190.305 356.419 225.593 352.924 257.661 339.565C289.729 326.206 317.139 303.583 336.423 274.558C355.707 245.533 366 211.408 366 176.5C366 153.322 361.461 130.37 352.641 108.956C343.821 87.5424 330.894 68.0852 314.597 51.6956C298.301 35.3061 278.954 22.3052 257.661 13.4353C236.368 4.56531 213.547 0 190.5 0ZM190.5 310.217C164.203 310.217 138.497 302.374 116.632 287.681C94.7669 272.988 77.7252 252.105 67.6619 227.671C57.5985 203.238 54.9655 176.352 60.0957 150.413C65.226 124.475 77.8891 100.649 96.4838 81.948C115.078 63.2474 138.769 50.5121 164.561 45.3526C190.353 40.1931 217.086 42.8411 241.381 52.9618C265.676 63.0825 286.442 80.2213 301.051 102.211C315.661 124.201 323.459 150.053 323.459 176.5C323.408 211.944 309.382 245.921 284.457 270.979C259.532 296.038 225.743 310.133 190.5 310.173V310.217Z" fill="#F0F1F2"/>
<path d="M168.645 202.656C174.501 207.937 182.09 210.857 189.957 210.857C197.823 210.857 205.413 207.937 211.268 202.656V151.331C205.42 146.037 197.828 143.108 189.957 143.108C182.086 143.108 174.494 146.037 168.645 151.331V202.656ZM189.957 86.0001C178.075 85.9946 166.309 88.3471 155.334 92.9225C144.359 97.498 134.39 104.206 126 112.663L156.074 142.936C165.058 133.907 177.242 128.834 189.946 128.834C202.65 128.834 214.834 133.907 223.817 142.936L253.935 112.663C245.541 104.199 235.566 97.4866 224.583 92.9109C213.599 88.3351 201.824 85.9865 189.935 86.0001H189.957ZM223.861 211.051C219.414 215.524 214.134 219.073 208.322 221.495C202.51 223.916 196.28 225.162 189.989 225.162C183.698 225.162 177.468 223.916 171.656 221.495C165.845 219.073 160.564 215.524 156.118 211.051L126.043 241.346C134.442 249.796 144.416 256.499 155.394 261.073C166.371 265.646 178.138 268 190.022 268C201.905 268 213.672 265.646 224.65 261.073C235.627 256.499 245.601 249.796 254 241.346L223.861 211.051Z" fill="#FFBB17"/>
<path d="M190.659 0.000131017C164.212 0.00505007 138.107 6.0053 114.29 17.5537C90.473 29.1021 69.5575 45.9009 53.1023 66.6982L51.4369 68.8707C49.1299 71.8399 46.9238 74.9177 44.8186 78.1042C27.0733 104.662 16.8451 135.564 15.2271 167.509C13.609 199.453 20.662 231.238 35.6321 259.468C50.6023 287.698 72.9272 311.312 100.221 327.786C127.515 344.26 158.752 352.975 190.594 353C191.362 342.854 188.71 332.743 183.064 324.295C177.419 315.846 169.109 309.55 159.471 306.42H159.298C133.958 300.111 111.021 286.465 93.3338 267.177C75.6468 247.889 63.9888 223.807 59.8071 197.922H148.051C144.613 191.317 142.818 183.975 142.818 176.522C142.818 169.069 144.613 161.727 148.051 155.122H59.7422C64.6722 123.8 80.5698 95.2751 104.574 74.6798C128.578 54.0846 159.112 42.772 190.68 42.7781C214.994 42.7772 238.842 49.4724 259.631 62.1358V62.1358C268.528 67.4991 279.071 69.4061 289.271 67.497C299.472 65.5879 308.623 59.9946 315 51.7726C298.698 35.3371 279.322 22.3017 257.987 13.4166C236.651 4.53142 213.777 -0.0281782 190.68 0.000131017H190.659Z" fill="#FFBB17"/>
</svg>
